<?xml version="1.0" encoding="UTF-8"?>
<svg id="Layer_1" xmlns="http://www.w3.org/2000/svg" version="1.1" viewBox="0 0 386.5 357.1">
  <!-- Generator: Adobe Illustrator 29.0.0, SVG Export Plug-In . SVG Version: 2.1.0 Build 186)  -->
  <defs>
    <style>
      .st0 {
        fill: #3f708f;
      }
    </style>
  </defs>
  <path class="st0" d="M72,111.3c-3.6.5-5.4,1.5-5.8,5.4-1.6,13.7,1.2,30.2,0,44.2.2,3,3.4,5,6.4,4.9,22.9-1.6,48.6,2.1,71.2,0,5.1-.5,5.9-3,6.4-7.9.9-9.8.8-28.4,0-38.2-.5-5.9-1.7-8-7.9-8.6-22.2-2.1-47.7,1.4-70.2.2h-.1Z"/>
  <path class="st0" d="M91.4,237c53.8-6.1,60.1,74.7,8.8,79.1s-59.1-73.5-8.8-79.1Z"/>
  <path class="st0" d="M336.9,248.3c37.3,37.3-19.8,93.6-56.6,56.2s19.7-93.2,56.6-56.2Z"/>
  <path class="st0" d="M223.4,34.7H81.2c4.4-10.1,10.7-19.9,22.3-22.3,30.8,1.4,64.4-2.5,94.9-.2,13.5,1,19.9,11.3,25,22.5Z"/>
  <path class="st0" d="M72,111.3c22.5,1.2,48-2.3,70.2-.2s7.4,2.7,7.9,8.6c.8,9.9.9,28.4,0,38.2-.4,4.9-1.3,7.4-6.4,7.9-22.6,2.1-48.3-1.6-71.2,0-2.9,0-6.2-1.8-6.4-4.9,1.3-14-1.6-30.5,0-44.2.4-3.9,2.2-4.9,5.8-5.4h.1Z"/>
  <path class="st0" d="M345.5,175.7l-24.1-50.4h35.6c10.2,0,20.4-12.4,21.3-22.1,2.5-27.4-23.4-53.1-50.5-52.8H26.8c-12.5,0-23.2,9-25,21.4v190.9c0,9.8,11.6,22.1,21.3,22.1h18.3c-7.4-48.8,48.2-82.4,88.3-52.7,8.8,6.5,21.8,24.7,21.8,35.9v16.8h101.8v-15.3c0-7.4,7.2-21.8,12-27.7,22.6-27.6,64.3-27.7,86.8,0,4.7,5.7,12,20.4,12,27.7v14.6c10.8-.3,17.9-9.2,21-18.7v-50.2c-4.4-20.4-25.4-27.1-39.6-39.4h0ZM165.7,159.3c-.5,5.6-2.3,11.8-6.2,15.8-3.6,3.7-9.2,5.8-14.3,6.3-23.9,2.1-50.7-1.6-74.9,0-10-.6-18.8-8.4-19.8-18.4-1.1-11.4-1.2-38.1,0-49.4,1.2-11.3,10.8-17.4,21.3-18.3,22.8-1.9,48.1,1.4,71.1,0,10,.5,19,5.6,21.7,15.7,2.3,8.6,1.9,38.5,1.1,48.3h0ZM274.6,173.2c-1.4,0-5.6-4.8-5.6-6.4v-41.5h35.2l22.5,47.9h-52.1Z"/>
</svg>